<svg width="379" height="119" viewBox="0 0 379 119" fill="none" xmlns="http://www.w3.org/2000/svg">
<path d="M49.0383 41.528C48.9103 42.36 48.1423 42.68 47.2463 42.68C45.9023 42.68 44.2383 42.04 43.9183 41.144C43.5343 39.928 44.7503 39.288 46.0943 39.288C47.5023 39.288 49.1023 39.992 49.0383 41.528ZM59.4703 53.176C60.5583 54.008 59.1503 55.672 58.5743 56.44C55.2463 60.6 52.7503 62.648 44.4303 69.176C41.7423 78.136 37.7103 86.904 32.1423 94.264C30.1583 96.888 26.6383 101.176 22.8623 101.176C22.0303 101.176 21.1343 100.984 20.3023 100.472C15.5663 97.72 19.2783 90.232 21.3263 87.032C25.9343 79.544 32.7183 75.832 39.2463 70.52C46.2223 50.04 42.3183 44.472 46.4783 45.368C48.7183 46.008 48.5903 47.992 48.3983 49.848C47.8863 55.032 46.9263 60.216 45.5823 65.272C50.3183 61.816 53.1343 59.832 57.1023 55.224C57.6783 54.584 58.1903 52.6 59.4703 53.176ZM22.9903 97.4C29.0063 93.496 35.1503 81.4 37.9023 74.296C32.7183 77.944 27.6623 81.4 23.8223 86.648C22.0943 89.016 20.3663 91.768 19.7903 94.648C19.3423 96.952 19.6623 98.296 20.8143 98.296C21.3263 98.296 22.0943 97.976 22.9903 97.4Z" fill="#FF7096"/>
<path d="M86.1943 53.112C87.7943 54.2 84.4663 57.976 83.7623 59C81.2023 62.584 74.7383 70.008 70.2583 70.008C69.6823 70.008 69.1703 69.88 68.6583 69.624C66.3543 68.344 66.6743 64.376 67.1223 61.048C63.4743 66.296 59.7623 68.792 57.2663 68.792C54.5783 68.792 53.3623 65.912 55.0263 60.536C56.7543 55.096 61.4903 45.112 68.3383 45.112C69.8103 45.112 71.2823 45.624 72.4343 46.584C72.8183 46.584 73.2023 46.712 73.5223 46.84C76.1463 48.312 74.2903 51.192 73.6503 53.304C72.3063 57.528 70.7063 62.584 71.2823 67.064C75.6343 66.488 80.0503 60.856 82.4183 57.464C82.9943 56.696 84.7223 52.408 86.1943 53.112ZM68.2103 55.864C68.4663 54.84 70.1303 49.144 70.5143 48.184C66.8023 46.968 58.4183 57.72 58.5463 65.848C62.8343 64.568 66.0343 59.768 68.2103 55.864Z" fill="#FF7096"/>
<path d="M118.255 53.176C119.791 54.328 116.463 57.656 115.695 58.552C111.407 63.288 106.543 69.112 102.767 69.112C101.231 69.112 99.8228 68.216 98.7348 65.912C97.9668 64.184 97.6468 62.328 97.9028 60.472C93.8708 64.312 87.2788 69.816 82.9908 69.816C81.7748 69.816 80.7508 69.432 80.0468 68.408C78.1908 65.784 80.1748 61.88 81.3908 59.384C87.0868 47.416 93.8708 43.064 98.3508 43.064C100.015 43.064 101.423 43.704 102.255 44.792C105.263 36.728 108.719 28.856 112.559 21.176C113.135 20.024 113.903 19 114.927 19C115.375 19 115.823 19.192 116.335 19.576C117.167 20.28 117.423 21.496 116.911 22.456C110.767 37.048 99.8228 57.528 102.959 65.976C106.031 67.256 110.895 60.664 114.735 56.568C115.439 55.8 116.975 52.536 118.255 53.176ZM83.6308 66.872C87.2148 67.256 95.4068 59.96 98.4788 56.888C99.3108 53.368 100.399 49.912 101.615 46.52C101.551 46.136 101.103 45.88 100.719 45.944C95.7908 45.816 84.2068 57.72 83.6308 66.872ZM83.3108 66.616H82.8628C83.1188 66.808 83.3748 66.872 83.6308 66.872L83.3108 66.616Z" fill="#FF7096"/>
<path d="M126.319 66.424C127.023 65.848 127.983 64.568 128.943 64.568C129.199 64.568 129.455 64.696 129.711 64.952C130.991 66.424 127.855 68.088 126.895 68.792C124.847 70.264 122.095 71.928 119.471 71.928C118.383 71.928 117.295 71.608 116.271 70.904C109.935 66.36 115.119 55.736 118.127 50.872C120.239 47.416 124.335 41.72 128.239 42.808C133.487 44.28 128.623 51.32 124.271 54.648C123.119 55.48 119.727 57.784 119.407 57.912C116.783 64.632 117.167 69.112 120.431 69.112C121.839 69.112 123.823 68.28 126.319 66.424ZM128.815 45.176C125.871 47.032 123.247 50.296 121.327 53.88C123.759 52.472 125.935 50.552 127.727 48.312C128.239 47.608 129.263 46.136 128.815 45.176Z" fill="#FF7096"/>
<path d="M196.747 59.704C193.995 62.584 185.931 68.216 181.579 68.216C180.939 68.216 180.235 68.088 179.659 67.768C173.579 64.44 184.139 54.968 184.715 45.816C180.299 48.184 170.507 63.8 169.099 65.592C168.651 67.064 168.139 68.856 166.667 68.856C166.411 68.856 166.091 68.728 165.707 68.6C161.355 66.424 168.203 60.6 168.203 51.064C164.747 52.984 160.203 60.792 156.939 64.76C156.299 65.592 156.043 68.664 154.123 68.664C153.867 68.664 153.547 68.6 153.163 68.408C150.603 67.064 152.139 64.248 152.779 62.2C154.507 56.76 156.107 51.192 158.795 46.136C159.563 44.664 160.843 41.336 162.827 41.336C163.211 41.336 163.659 41.464 164.107 41.784C166.347 43.64 163.915 46.072 162.955 47.928C161.035 51.704 159.435 55.672 158.283 59.768C160.203 57.08 164.171 50.808 167.435 48.696C167.563 47.864 168.011 47.544 168.587 47.544C169.995 47.544 172.171 49.592 172.427 51.128C172.811 53.56 172.555 56.12 171.723 58.424C174.155 54.904 183.115 41.144 187.147 42.744C193.483 45.24 182.219 62.2 182.155 65.272C185.355 65.528 192.075 61.368 194.443 59.064C196.619 57.016 199.307 52.6 200.459 53.176C202.187 54.52 198.091 58.36 196.747 59.704Z" fill="#FF7096"/>
<path d="M221.497 53.176C222.265 53.752 221.753 54.584 221.305 55.352C220.217 57.144 218.937 58.808 217.529 60.344C213.561 64.824 207.417 72.056 201.913 72.056C200.633 72.056 199.417 71.672 198.265 70.776C191.865 65.72 197.945 53.368 202.873 47.224C204.473 45.176 207.481 41.976 210.489 42.808C215.737 44.28 210.553 51.064 208.569 52.856C206.393 54.712 204.089 56.376 201.657 57.912C199.353 63.864 199.033 69.048 202.553 69.048C203.513 69.048 204.793 68.664 206.393 67.768C210.873 65.272 214.201 61.112 217.465 57.272C218.233 56.44 220.089 52.472 221.497 53.176ZM211.001 45.176C208.121 47.032 205.497 50.296 203.513 53.88C206.009 52.472 208.185 50.552 209.913 48.312C210.425 47.608 211.513 46.136 211.001 45.176Z" fill="#FF7096"/>
<path d="M248.257 53.112C249.857 54.2 246.529 57.976 245.825 59C243.265 62.584 236.801 70.008 232.321 70.008C231.745 70.008 231.233 69.88 230.721 69.624C228.417 68.344 228.737 64.376 229.185 61.048C225.537 66.296 221.825 68.792 219.329 68.792C216.641 68.792 215.425 65.912 217.089 60.536C218.817 55.096 223.553 45.112 230.401 45.112C231.873 45.112 233.345 45.624 234.497 46.584C234.881 46.584 235.265 46.712 235.585 46.84C238.209 48.312 236.353 51.192 235.713 53.304C234.369 57.528 232.769 62.584 233.345 67.064C237.697 66.488 242.113 60.856 244.481 57.464C245.057 56.696 246.785 52.408 248.257 53.112ZM230.273 55.864C230.529 54.84 232.193 49.144 232.577 48.184C228.865 46.968 220.481 57.72 220.609 65.848C224.897 64.568 228.097 59.768 230.273 55.864Z" fill="#FF7096"/>
<path d="M280.317 53.176C281.853 54.328 278.525 57.656 277.757 58.552C273.469 63.288 268.605 69.112 264.829 69.112C263.293 69.112 261.885 68.216 260.797 65.912C260.029 64.184 259.709 62.328 259.965 60.472C255.933 64.312 249.341 69.816 245.053 69.816C243.837 69.816 242.813 69.432 242.109 68.408C240.253 65.784 242.237 61.88 243.453 59.384C249.149 47.416 255.933 43.064 260.413 43.064C262.077 43.064 263.485 43.704 264.317 44.792C267.325 36.728 270.781 28.856 274.621 21.176C275.197 20.024 275.965 19 276.989 19C277.437 19 277.885 19.192 278.397 19.576C279.229 20.28 279.485 21.496 278.973 22.456C272.829 37.048 261.885 57.528 265.021 65.976C268.093 67.256 272.957 60.664 276.797 56.568C277.501 55.8 279.037 52.536 280.317 53.176ZM245.693 66.872C249.277 67.256 257.469 59.96 260.541 56.888C261.373 53.368 262.461 49.912 263.677 46.52C263.613 46.136 263.165 45.88 262.781 45.944C257.853 45.816 246.269 57.72 245.693 66.872ZM245.373 66.616H244.925C245.181 66.808 245.437 66.872 245.693 66.872L245.373 66.616Z" fill="#FF7096"/>
<path d="M304.893 53.176C306.685 54.584 301.629 58.616 300.669 59.448C298.685 61.24 295.869 63.224 293.181 63.224C292.605 63.224 292.029 63.096 291.453 62.904C289.277 67.512 283.133 74.424 278.269 74.424C277.437 74.424 276.669 74.232 275.965 73.848C269.821 70.456 276.605 55.992 281.597 49.592C282.685 48.312 285.117 44.856 287.293 44.856C287.869 44.856 288.445 45.112 288.957 45.752C289.341 46.264 289.469 46.968 289.213 47.544C292.157 47.544 294.333 53.88 292.605 59.896C293.053 60.28 293.565 60.408 294.141 60.408C295.805 60.408 297.789 58.936 299.197 57.848C300.157 57.08 303.421 52.344 304.893 53.176ZM291.453 57.976C291.901 55.8 292.093 51.64 290.237 50.36H290.109C290.301 50.68 290.557 50.936 290.813 51.192C290.557 53.496 290.749 55.8 291.453 57.976ZM277.821 71.096C278.205 71.416 278.717 71.544 279.229 71.544C282.557 71.544 288.061 65.592 289.917 62.072C287.101 59.768 286.077 54.712 286.333 51.128C282.237 54.968 276.989 64.76 278.013 70.84C277.949 70.904 277.885 70.968 277.821 70.968V71.096Z" fill="#FF7096"/>
<path d="M342.192 53.112C343.152 53.752 342.448 54.776 342 55.544C339.12 60.6 333.552 63.608 329.648 63.288C326.32 68.728 321.584 72.12 318 72.12C315.056 72.12 312.816 69.88 312.56 64.76C310.576 67.128 305.904 72.056 302.704 72.056C302.256 72.056 301.872 71.992 301.552 71.8C298.928 70.52 299.632 67 300.016 64.76C301.168 57.976 303.536 51.512 306.992 45.624C307.888 44.152 310 40.248 312.112 40.248C312.624 40.248 313.136 40.44 313.648 40.952C315.824 43.32 311.28 47.032 310.32 48.952C307.248 54.648 303.984 62.264 303.984 68.984C306.928 68.216 310.832 63.672 312.752 61.304C313.072 58.68 313.712 56.12 314.608 53.688C315.248 51.768 316.336 48.056 319.024 48.824C321.968 49.656 319.664 54.328 318.768 55.864C317.744 57.784 316.656 63.288 317.488 68.856C317.936 69.048 318.384 69.176 318.896 69.176C321.968 69.176 325.872 65.4 327.664 62.84C322.032 60.344 324.016 49.208 328.688 48.184C333.04 47.288 334.192 53.624 331.248 60.28C333.872 60.472 337.776 58.104 340.016 55.16C340.464 54.52 341.04 52.472 342.192 53.112ZM329.52 59.64C330.608 57.464 332.848 51.768 330.608 50.808L330.48 50.872C330.48 51.064 330.544 51.32 330.608 51.448C330.224 52.408 327.024 57.464 329.52 59.64Z" fill="#FF7096"/>
<path d="M358.767 53.176C360.495 54.52 356.271 58.552 355.311 59.448C353.199 61.752 350.575 63.544 347.695 64.76C349.103 69.944 345.711 73.912 341.103 73.912C340.527 73.912 339.887 73.848 339.247 73.72C337.199 73.336 335.023 71.8 335.407 69.432C335.855 66.424 340.271 64.696 343.151 63.672C340.847 57.976 333.167 53.688 341.615 46.456C343.791 44.536 349.295 40.696 352.239 41.144C354.351 41.464 354.479 43.64 353.519 45.176C351.535 48.568 347.951 51.384 345.007 53.944C344.303 54.712 343.535 55.416 342.767 56.056C343.599 57.912 345.391 59.704 346.735 62.456C350.703 61.048 354.159 58.424 356.591 54.968C357.039 54.328 357.551 52.6 358.767 53.176ZM351.535 44.856C348.015 46.456 342.703 49.464 342.191 53.24C344.879 51.32 349.551 47.544 351.535 44.856ZM336.943 70.456C337.583 71.032 338.351 71.224 339.055 71.224C341.423 71.224 343.599 68.536 343.663 66.104C341.039 66.936 338.287 68.024 336.879 70.008L336.943 70.456Z" fill="#FF7096"/>
</svg>
